<svg width="137" height="137" viewBox="0 0 137 137" fill="none" xmlns="http://www.w3.org/2000/svg">
<g filter="url(#filter0_dd_2_4486)">
<g filter="url(#filter1_di_2_4486)">
<circle cx="64.5" cy="60.5" r="48.5" fill="#0C111F"/>
</g>
<g filter="url(#filter2_f_2_4486)">
<circle cx="65.5" cy="66.5" r="26.5" fill="#F6B70E" fill-opacity="0.5"/>
</g>
<circle cx="64.4999" cy="60.5" r="26.5" fill="url(#paint0_linear_2_4486)"/>
<path d="M64 70.9167V50.375" stroke="#0C111F" stroke-width="2" stroke-linecap="round" stroke-linejoin="round"/>
<path d="M55 63C58.8571 63 64 71 64 71C64 71 69.1428 63 73 63" stroke="#0C111F" stroke-width="2" stroke-linecap="round" stroke-linejoin="round"/>
</g>
<path d="M53.6977 93.13L49.4639 91.4128L49.0947 92.3232L52.2708 93.6115L49.7969 99.7105L50.8545 100.139L53.6977 93.13Z" fill="white"/>
<path d="M46.0574 89.4316L45.135 88.8243L42.0155 93.5628L42.9379 94.17L46.0574 89.4316ZM41.9908 94.5945C41.673 94.3853 41.2452 94.4574 41.0462 94.7597C40.8472 95.0621 40.948 95.4866 41.2657 95.6958C41.5866 95.907 42.0133 95.8297 42.2123 95.5274C42.4113 95.2251 42.3116 94.8057 41.9908 94.5945Z" fill="white"/>
<path d="M38.8589 88.1584C38.2185 88.7976 37.4481 88.7577 36.8923 88.2009C36.3549 87.6623 36.3764 86.999 36.9646 86.412L39.4246 83.9568L38.6445 83.1752L36.0904 85.7242C35.0892 86.7235 35.1247 87.7839 35.9491 88.61C36.5727 89.2348 37.2203 89.3399 37.8421 89.095L37.8917 89.1447L35.8996 91.1328L36.6693 91.904L42.0232 86.5606L41.2431 85.7789L38.8589 88.1584Z" fill="white"/>
<path d="M35.29 78.3246C34.8164 77.5148 34.1385 77.2995 33.6656 77.3322L33.6432 77.2939L34.3127 76.9023L33.7683 75.9714L30.5163 77.8733C29.0912 78.7068 29.4638 79.995 29.9188 80.7729C30.4371 81.6592 31.2715 82.2665 32.3507 82.0633L32.0308 81.048C31.6012 81.111 31.0576 80.9497 30.6828 80.3089C30.323 79.6936 30.4604 79.1896 31.0151 78.8652L31.0374 78.8521C31.385 78.6489 31.5874 79.0097 32.2041 79.83C32.8551 80.6943 33.653 81.5027 34.7657 80.8519C35.7285 80.2888 35.8345 79.2556 35.29 78.3246ZM34.4037 78.5649C34.7188 79.1037 34.704 79.6344 34.2321 79.9103C33.722 80.2087 33.2755 79.8622 32.8796 79.3536C32.6573 79.0686 32.1455 78.3838 31.9283 78.3268L32.5595 77.9576C33.1398 77.6183 33.9394 77.7711 34.4037 78.5649Z" fill="white"/>
<path d="M25.9514 71.3889L26.3068 72.4967L25.0126 72.9119L25.3499 73.9635L26.6441 73.5483L26.898 74.3395L27.742 74.0688L27.4882 73.2775L30.678 72.2541C31.6603 71.9428 31.8947 71.0414 31.6109 70.2171C31.5002 69.8841 31.3646 69.6793 31.2794 69.5709L30.4717 70.0395C30.5083 70.1053 30.5817 70.2253 30.6359 70.3941C30.7453 70.7352 30.731 71.0773 30.1225 71.2725L27.1508 72.2259L26.7954 71.1181L25.9514 71.3889Z" fill="white"/>
<path d="M30.0335 60.3181L30.3471 55.7601L29.367 55.6927L29.1317 59.1121L22.5656 58.6602L22.4872 59.7988L30.0335 60.3181Z" fill="white"/>
<path d="M31.7122 50.416C32.0043 49.5245 31.7159 48.8742 31.3779 48.5419L31.3917 48.4998L32.1287 48.7413L32.4645 47.7165L28.8845 46.5435C27.3156 46.0294 26.5985 47.1625 26.3179 48.0189C25.9982 48.9946 26.0969 50.0219 26.9646 50.6949L27.5124 49.7823C27.1804 49.5025 26.9407 48.9886 27.1718 48.2832C27.3938 47.6058 27.8621 47.3744 28.4728 47.5745L28.4974 47.5826C28.88 47.7079 28.7442 48.0987 28.5391 49.1043C28.3237 50.1647 28.2478 51.298 29.4727 51.6994C30.5327 52.0467 31.3764 51.4409 31.7122 50.416ZM30.9446 49.9119C30.7502 50.505 30.3432 50.8458 29.8237 50.6756C29.2621 50.4916 29.2254 49.9277 29.3436 49.294C29.4095 48.9386 29.5828 48.1015 29.4813 47.9011L30.1762 48.1288C30.815 48.3381 31.2309 49.0379 30.9446 49.9119Z" fill="white"/>
<path d="M34.2713 43.9853L34.8137 43.0234L29.8723 40.2366L29.3298 41.1985L34.2713 43.9853ZM28.8414 40.2827C29.0282 39.9514 28.9269 39.5296 28.6116 39.3517C28.2963 39.1739 27.8797 39.3037 27.6929 39.635C27.5042 39.9696 27.6105 40.39 27.9258 40.5678C28.2411 40.7456 28.6527 40.6173 28.8414 40.2827Z" fill="white"/>
<path d="M35.0451 36.7344C34.3591 36.1443 34.3284 35.3871 34.8294 34.8047C35.3183 34.2363 35.987 34.2122 36.6114 34.7493L39.2462 37.0158L39.9664 36.1786L37.2308 33.8254C36.1667 32.9102 35.1062 33.0161 34.3499 33.8953C33.7935 34.5421 33.7294 35.2226 34.0148 35.814L33.969 35.8672L33.269 35.2651L32.5778 36.0687L36.8786 39.7682L37.5988 38.931L35.0451 36.7344Z" fill="white"/>
<path d="M44.5795 34.9592C45.326 34.4347 45.5235 33.7136 45.2786 32.7933L43.5071 26.1927L42.5246 26.8695L43.8801 31.2977L43.8318 31.3317L40.1251 28.5555L39.1581 29.235L44.1605 32.7439L44.2652 33.1307C44.4687 33.9085 44.1815 34.1871 43.5903 34.3994L43.893 35.2926C44.0357 35.2645 44.3075 35.1503 44.5795 34.9592Z" fill="white"/>
<path d="M51.6071 28.6372C52.4836 28.3027 52.8072 27.6692 52.8524 27.1974L52.8938 27.1816L53.1704 27.9062L54.178 27.5216L52.8347 24.002C52.246 22.4595 50.9142 22.616 50.0722 22.9373C49.113 23.3034 48.3771 24.027 48.4008 25.1249L49.4547 24.9757C49.463 24.5416 49.7112 24.0318 50.4047 23.7671C51.0707 23.5129 51.5453 23.7311 51.7745 24.3315L51.7837 24.3556C51.9272 24.7318 51.5381 24.8724 50.6279 25.3463C49.6685 25.8468 48.7403 26.5015 49.1999 27.7058C49.5976 28.7479 50.5996 29.0217 51.6071 28.6372ZM51.5154 27.7234C50.9322 27.946 50.4111 27.8444 50.2162 27.3337C50.0055 26.7816 50.4205 26.3979 50.9871 26.0907C51.3047 25.9181 52.0641 25.5255 52.1559 25.3205L52.4166 26.0037C52.6563 26.6318 52.3746 27.3955 51.5154 27.7234Z" fill="white"/>
<path d="M64.4153 23.4257C64.8179 23.4257 65.154 23.097 65.154 22.687C65.154 22.2844 64.8179 21.952 64.4153 21.952C64.009 21.952 63.6766 22.2844 63.6766 22.687C63.6766 23.097 64.009 23.4257 64.4153 23.4257Z" fill="white"/>
<path d="M74.6307 27.4445L78.8992 29.0735L79.2495 28.1556L76.0473 26.9335L78.394 20.7844L77.3278 20.3775L74.6307 27.4445Z" fill="white"/>
<path d="M82.3462 30.9836L83.281 31.5716L86.3014 26.7694L85.3667 26.1814L82.3462 30.9836ZM86.3048 25.7374C86.6268 25.94 87.053 25.859 87.2457 25.5526C87.4384 25.2462 87.3288 24.8238 87.0068 24.6213C86.6817 24.4168 86.2566 24.5029 86.0639 24.8093C85.8712 25.1156 85.9796 25.5329 86.3048 25.7374Z" fill="white"/>
<path d="M89.5707 32.1071C90.1978 31.4547 90.9689 31.4786 91.536 32.0238C92.0846 32.551 92.0768 33.2147 91.5009 33.8138L89.0924 36.3195L89.8886 37.0848L92.3892 34.4832C93.3695 33.4634 93.312 32.404 92.4705 31.5952C91.8341 30.9835 91.1845 30.8918 90.5679 31.1496L90.5173 31.101L92.4677 29.0719L91.6821 28.3169L86.4403 33.7702L87.2365 34.5355L89.5707 32.1071Z" fill="white"/>
<path d="M93.343 41.8646C93.8333 42.6644 94.5156 42.8656 94.9877 42.8231L95.0109 42.8609L94.3496 43.2663L94.9133 44.1857L98.1251 42.2168C99.5326 41.3539 99.1333 40.0737 98.6623 39.3054C98.1257 38.43 97.2788 37.8401 96.2041 38.0658L96.545 39.0741C96.9732 39.0023 97.52 39.1522 97.908 39.7851C98.2806 40.3929 98.1537 40.8996 97.6058 41.2354L97.5837 41.249C97.2405 41.4594 97.0306 41.1028 96.3971 40.2955C95.7283 39.4449 94.9137 38.6532 93.8148 39.3269C92.8638 39.9099 92.7793 40.9451 93.343 41.8646ZM94.2242 41.606C93.898 41.0738 93.9018 40.543 94.3678 40.2573C94.8716 39.9484 95.3252 40.2855 95.7316 40.7858C95.9597 41.0662 96.4856 41.7402 96.704 41.7926L96.0805 42.1748C95.5075 42.5262 94.7049 42.39 94.2242 41.606Z" fill="white"/>
<path d="M102.822 48.605L102.444 47.5049L103.729 47.0629L103.37 46.0186L102.085 46.4605L101.815 45.6747L100.976 45.9629L101.247 46.7488L98.0788 47.8382C97.1032 48.1698 96.8875 49.0758 97.1884 49.8941C97.306 50.2247 97.4457 50.4266 97.5332 50.5333L98.331 50.048C98.293 49.9829 98.2171 49.8645 98.1595 49.6969C98.043 49.3581 98.0502 49.0158 98.6545 48.808L101.606 47.7931L101.984 48.8933L102.822 48.605Z" fill="white"/>
<path d="M98.9717 59.7582L98.7527 64.3217L99.734 64.3688L99.8983 60.9452L106.472 61.2607L106.527 60.1208L98.9717 59.7582Z" fill="white"/>
<path d="M97.4984 69.693C97.2249 70.5903 97.5266 71.2344 97.8715 71.5597L97.8586 71.6021L97.1167 71.3759L96.8022 72.4075L100.406 73.506C101.985 73.9873 102.679 72.8396 102.941 71.9776C103.241 70.9954 103.121 69.9704 102.239 69.3155L101.71 70.2394C102.048 70.5122 102.298 71.021 102.082 71.7311C101.874 72.4129 101.411 72.6539 100.796 72.4666L100.771 72.459C100.386 72.3416 100.514 71.9481 100.698 70.9385C100.891 69.8738 100.944 68.7392 99.7107 68.3634C98.6438 68.0381 97.8129 68.6613 97.4984 69.693ZM98.2763 70.1811C98.4583 69.584 98.8582 69.2348 99.3811 69.3942C99.9463 69.5665 99.9948 70.1296 99.8897 70.7655C99.8312 71.1222 99.6754 71.9628 99.781 72.161L99.0815 71.9478C98.4385 71.7518 98.0082 71.0608 98.2763 70.1811Z" fill="white"/>
<path d="M95.0738 76.1754L94.5514 77.1484L99.5496 79.832L100.072 78.8591L95.0738 76.1754ZM100.579 79.7645C100.399 80.0997 100.509 80.5193 100.828 80.6905C101.147 80.8617 101.561 80.7234 101.741 80.3882C101.923 80.0498 101.808 79.6317 101.489 79.4605C101.17 79.2893 100.761 79.4261 100.579 79.7645Z" fill="white"/>
<path d="M94.4501 83.4407C95.1482 84.0165 95.1946 84.7729 94.7058 85.3656C94.2288 85.944 93.5608 85.9819 92.9253 85.4579L90.244 83.2466L89.5414 84.0986L92.3253 86.3945C93.4081 87.2874 94.4662 87.1595 95.2041 86.2648C95.7469 85.6066 95.7969 84.9249 95.4993 84.3396L95.5439 84.2854L96.2563 84.8729L96.9307 84.0551L92.554 80.4456L91.8514 81.2976L94.4501 83.4407Z" fill="white"/>
<path d="M84.9551 85.4136C84.2197 85.9535 84.0372 86.6785 84.3012 87.5935L86.2093 94.1559L87.1775 93.4589L85.7304 89.0598L85.778 89.0248L89.5415 91.7235L90.4942 91.0241L85.4201 87.6198L85.3073 87.2352C85.0877 86.4618 85.3691 86.1773 85.9558 85.9528L85.6346 85.066C85.4925 85.0971 85.2231 85.2169 84.9551 85.4136Z" fill="white"/>
<path d="M78.0602 91.8801C77.1909 92.2327 76.8805 92.8727 76.8451 93.3454L76.804 93.3621L76.5125 92.6434L75.5131 93.0487L76.9291 96.5398C77.5497 98.0697 78.878 97.8856 79.7131 97.5469C80.6646 97.1609 81.3852 96.4222 81.3388 95.325L80.2882 95.4961C80.2889 95.9302 80.0514 96.4451 79.3634 96.7241C78.7029 96.9921 78.2238 96.7838 77.9823 96.1883L77.9725 96.1644C77.8212 95.7913 78.2073 95.6426 79.1075 95.15C80.0563 94.6296 80.9707 93.9558 80.4862 92.7613C80.067 91.7277 79.0596 91.4747 78.0602 91.8801ZM78.1709 92.7917C78.7493 92.5571 79.2724 92.6478 79.4778 93.1544C79.7 93.702 79.2931 94.0942 78.7329 94.4131C78.419 94.5923 77.6679 95.0006 77.5804 95.2074L77.3055 94.5297C77.0529 93.9068 77.3187 93.1374 78.1709 92.7917Z" fill="white"/>
<path d="M70.1491 97.4855C66.5174 98.0975 62.8147 98.1639 59.1634 97.6825" stroke="white" stroke-linecap="round" stroke-linejoin="round"/>
<defs>
<filter id="filter0_dd_2_4486" x="12" y="12" width="105" height="105" filterUnits="userSpaceOnUse" color-interpolation-filters="sRGB">
<feFlood flood-opacity="0" result="BackgroundImageFix"/>
<feColorMatrix in="SourceAlpha" type="matrix" values="0 0 0 0 0 0 0 0 0 0 0 0 0 0 0 0 0 0 127 0" result="hardAlpha"/>
<feOffset dy="4"/>
<feGaussianBlur stdDeviation="2"/>
<feComposite in2="hardAlpha" operator="out"/>
<feColorMatrix type="matrix" values="0 0 0 0 0 0 0 0 0 0 0 0 0 0 0 0 0 0 0.25 0"/>
<feBlend mode="normal" in2="BackgroundImageFix" result="effect1_dropShadow_2_4486"/>
<feColorMatrix in="SourceAlpha" type="matrix" values="0 0 0 0 0 0 0 0 0 0 0 0 0 0 0 0 0 0 127 0" result="hardAlpha"/>
<feOffset dy="4"/>
<feGaussianBlur stdDeviation="2"/>
<feComposite in2="hardAlpha" operator="out"/>
<feColorMatrix type="matrix" values="0 0 0 0 0 0 0 0 0 0 0 0 0 0 0 0 0 0 0.25 0"/>
<feBlend mode="normal" in2="effect1_dropShadow_2_4486" result="effect2_dropShadow_2_4486"/>
<feBlend mode="normal" in="SourceGraphic" in2="effect2_dropShadow_2_4486" result="shape"/>
</filter>
<filter id="filter1_di_2_4486" x="0" y="0" width="137" height="137" filterUnits="userSpaceOnUse" color-interpolation-filters="sRGB">
<feFlood flood-opacity="0" result="BackgroundImageFix"/>
<feColorMatrix in="SourceAlpha" type="matrix" values="0 0 0 0 0 0 0 0 0 0 0 0 0 0 0 0 0 0 127 0" result="hardAlpha"/>
<feOffset dx="4" dy="8"/>
<feGaussianBlur stdDeviation="10"/>
<feComposite in2="hardAlpha" operator="out"/>
<feColorMatrix type="matrix" values="0 0 0 0 0 0 0 0 0 0 0 0 0 0 0 0 0 0 0.15 0"/>
<feBlend mode="normal" in2="BackgroundImageFix" result="effect1_dropShadow_2_4486"/>
<feBlend mode="normal" in="SourceGraphic" in2="effect1_dropShadow_2_4486" result="shape"/>
<feColorMatrix in="SourceAlpha" type="matrix" values="0 0 0 0 0 0 0 0 0 0 0 0 0 0 0 0 0 0 127 0" result="hardAlpha"/>
<feOffset dx="7"/>
<feGaussianBlur stdDeviation="10"/>
<feComposite in2="hardAlpha" operator="arithmetic" k2="-1" k3="1"/>
<feColorMatrix type="matrix" values="0 0 0 0 1 0 0 0 0 1 0 0 0 0 1 0 0 0 0.15 0"/>
<feBlend mode="normal" in2="shape" result="effect2_innerShadow_2_4486"/>
</filter>
<filter id="filter2_f_2_4486" x="13" y="14" width="105" height="105" filterUnits="userSpaceOnUse" color-interpolation-filters="sRGB">
<feFlood flood-opacity="0" result="BackgroundImageFix"/>
<feBlend mode="normal" in="SourceGraphic" in2="BackgroundImageFix" result="shape"/>
<feGaussianBlur stdDeviation="13" result="effect1_foregroundBlur_2_4486"/>
</filter>
<linearGradient id="paint0_linear_2_4486" x1="37.9999" y1="34" x2="91" y2="87.0001" gradientUnits="userSpaceOnUse">
<stop stop-color="#F9EC7D"/>
<stop offset="1" stop-color="#F5B100"/>
</linearGradient>
</defs>
</svg>
