<svg width="22" height="22" viewBox="0 0 22 22" fill="none" xmlns="http://www.w3.org/2000/svg">
<path d="M10.9778 1.47852C13.1382 1.47852 15.2102 2.33675 16.7378 3.86442C18.2655 5.39208 19.1237 7.46404 19.1237 9.62449C19.1237 13.5169 16.4967 17.0998 11.3416 20.3799C11.2328 20.449 11.1066 20.4856 10.9778 20.4856C10.8489 20.4856 10.7227 20.449 10.6139 20.3799C5.45886 17.0998 2.83179 13.5169 2.83179 9.62449C2.83179 7.46404 3.69002 5.39208 5.21769 3.86442C6.74535 2.33675 8.81731 1.47852 10.9778 1.47852ZM10.9778 6.90917C10.2576 6.90917 9.56696 7.19524 9.05774 7.70447C8.54851 8.21369 8.26244 8.90434 8.26244 9.62449C8.26244 10.3446 8.54851 11.0353 9.05774 11.5445C9.56696 12.0537 10.2576 12.3398 10.9778 12.3398C11.6979 12.3398 12.3886 12.0537 12.8978 11.5445C13.407 11.0353 13.6931 10.3446 13.6931 9.62449C13.6931 8.90434 13.407 8.21369 12.8978 7.70447C12.3886 7.19524 11.6979 6.90917 10.9778 6.90917Z" fill="white"/>
</svg>
