<svg width="19" height="18" viewBox="0 0 19 18" fill="none" xmlns="http://www.w3.org/2000/svg">
<path d="M13.902 10.6615C13.7145 10.8432 13.6283 11.1061 13.671 11.3639L14.3147 14.9264C14.3691 15.2283 14.2416 15.5339 13.9889 15.7084C13.7413 15.8894 13.4118 15.9111 13.1417 15.7663L9.93474 14.0937C9.82323 14.0343 9.69941 14.0024 9.5727 13.9988H9.37647C9.30841 14.0089 9.24179 14.0307 9.18097 14.064L5.97326 15.7446C5.81469 15.8242 5.63512 15.8525 5.45916 15.8242C5.0305 15.7431 4.74449 15.3347 4.81472 14.9039L5.45916 11.3414C5.50188 11.0815 5.41572 10.8172 5.22818 10.6325L2.6135 8.09822C2.39483 7.88607 2.3188 7.56747 2.41872 7.28C2.51575 6.99327 2.76339 6.78401 3.06243 6.73694L6.66115 6.21487C6.93485 6.18663 7.17525 6.02009 7.29834 5.7739L8.88409 2.52275C8.92175 2.45034 8.97026 2.38373 9.02891 2.32725L9.09408 2.27656C9.12811 2.23891 9.16721 2.20778 9.21066 2.18243L9.28958 2.15347L9.41268 2.10278H9.71752C9.98977 2.13102 10.2294 2.29394 10.3547 2.53724L11.9615 5.7739C12.0773 6.01068 12.3025 6.17505 12.5625 6.21487L16.1612 6.73694C16.4653 6.78039 16.7194 6.99037 16.8201 7.28C16.9149 7.57036 16.8331 7.88896 16.6101 8.09822L13.902 10.6615Z" fill="white"/>
</svg>
